<svg version="1.1" id="Layer_1" xmlns="http://www.w3.org/2000/svg" xmlns:xlink="http://www.w3.org/1999/xlink" x="0px" y="0px"
	 width="100%" viewBox="0 0 946 260" enable-background="new 0 0 946 260" xml:space="preserve">
<path fill="#000000" opacity="1.000000" stroke="none" 
	d="
M639.000000,261.000000 
	C426.000000,261.000000 213.500000,261.000000 1.000000,261.000000 
	C1.000000,174.333328 1.000000,87.666664 1.000000,1.000000 
	C316.333344,1.000000 631.666687,1.000000 947.000000,1.000000 
	C947.000000,87.666664 947.000000,174.333328 947.000000,261.000000 
	C844.500000,261.000000 742.000000,261.000000 639.000000,261.000000 
M240.173325,131.500092 
	C240.173325,118.971733 240.173325,106.443375 240.173325,93.915024 
	C241.834457,95.261917 242.470963,96.726181 242.996613,98.229218 
	C256.296875,136.259064 269.643433,174.272995 282.783112,212.358307 
	C284.042267,216.008026 285.708313,217.268021 289.504028,217.090469 
	C296.155182,216.779312 302.846191,216.735672 309.491547,217.103622 
	C313.524323,217.326920 315.225769,215.960281 316.528992,212.142059 
	C329.596832,173.856125 342.877747,135.642899 356.110535,97.413307 
	C356.690521,95.737732 357.385193,94.101845 358.026489,92.447479 
	C358.435059,92.568130 358.843658,92.688782 359.252228,92.809433 
	C359.252228,134.057663 359.252228,175.305893 359.252228,216.586487 
	C371.612244,216.586487 383.491486,216.586487 395.392029,216.586487 
	C395.392029,157.133850 395.392029,98.099907 395.392029,38.741718 
	C393.160522,38.643814 391.357361,38.498394 389.554016,38.496067 
	C375.056122,38.477371 360.555786,38.633823 346.061920,38.392670 
	C341.876984,38.323044 340.024475,39.617558 338.728271,43.708931 
	C326.963074,80.844872 314.951965,117.902916 303.000183,154.979660 
	C302.435791,156.730392 301.751221,158.442398 300.722656,161.273254 
	C299.767761,158.727310 299.272034,157.505005 298.847260,156.258514 
	C286.013489,118.596825 273.129944,80.951828 260.449188,43.238659 
	C259.221680,39.587925 257.556671,38.349083 253.747040,38.402245 
	C238.918747,38.609173 224.082748,38.657135 209.256546,38.385353 
	C204.617172,38.300308 203.385300,39.788105 203.396500,44.317760 
	C203.534027,99.975967 203.482803,155.634644 203.501724,211.293198 
	C203.502319,213.074097 203.730667,214.854935 203.855484,216.674377 
	C216.069672,216.674377 227.823563,216.674377 240.173325,216.674377 
	C240.173325,188.399307 240.173325,160.449707 240.173325,131.500092 
M601.482239,96.499641 
	C601.482239,136.553879 601.482239,176.608109 601.482239,216.678162 
	C615.039185,216.678162 627.625549,216.678162 640.838745,216.678162 
	C640.838745,214.417923 640.838623,212.461014 640.838745,210.504120 
	C640.839905,191.013626 640.828308,171.523117 640.859924,152.032669 
	C640.863525,149.816711 640.199219,147.115387 644.010620,147.179153 
	C658.324890,147.418610 672.654175,147.259521 686.950989,147.874710 
	C697.904663,148.346024 704.857910,154.793869 707.601196,165.167191 
	C709.335205,171.724121 710.036743,178.567047 711.008240,185.309525 
	C712.334839,194.516876 713.347473,203.771713 714.830444,212.951996 
	C715.070801,214.439850 717.020325,216.779526 718.226440,216.808823 
	C730.154907,217.098663 742.093262,216.984146 753.088440,216.984146 
	C751.544495,207.679459 749.799316,198.777115 748.651123,189.798447 
	C747.449341,180.400909 747.432800,170.822342 745.794617,161.517181 
	C743.503784,148.505325 736.951965,138.252335 723.743469,133.537964 
	C723.363037,133.402161 723.117493,132.888214 723.717834,133.545334 
	C729.899475,127.979752 737.270874,123.390617 741.863037,116.850151 
	C760.669495,90.064606 747.648132,51.674664 716.632629,41.528358 
	C710.572937,39.546013 703.898254,38.702805 697.494385,38.639614 
	C667.178772,38.340473 636.858398,38.552784 606.540466,38.414162 
	C602.635193,38.396309 601.370911,39.593849 601.410583,43.525738 
	C601.585083,60.848846 601.483704,78.174736 601.482239,96.499641 
M134.474152,82.255020 
	C137.071518,91.835640 137.071518,91.835640 147.267975,91.835709 
	C148.434296,91.835716 149.600616,91.835709 150.766937,91.835709 
	C158.376434,91.835709 165.985931,91.835709 174.148148,91.835709 
	C173.956680,88.119690 174.030746,85.138840 173.615738,82.227715 
	C171.131027,64.798119 161.820160,52.031628 146.419434,43.839783 
	C130.485016,35.364082 113.213699,33.348633 95.492195,34.642578 
	C80.232956,35.756737 66.183647,40.305305 53.980694,49.993179 
	C29.564775,69.376877 27.440907,112.644028 62.159809,129.423767 
	C65.749001,131.158432 69.392334,132.921158 73.195160,134.047684 
	C84.998131,137.544144 96.942719,140.565506 108.728508,144.115921 
	C116.191231,146.364044 123.686386,148.745255 130.769806,151.945831 
	C138.255005,155.327972 142.811356,161.172333 142.132187,170.122574 
	C141.480148,178.715393 136.295654,183.732880 129.026306,186.852997 
	C119.451050,190.962875 109.365265,191.440170 99.105064,190.129333 
	C79.928528,187.679352 70.214470,178.106430 67.815971,159.129608 
	C67.780174,158.846405 67.493210,158.594940 67.215416,158.159210 
	C55.065060,158.159210 42.825157,158.159210 30.340630,158.159210 
	C30.210859,159.247803 30.017735,160.043961 30.041079,160.833725 
	C30.100077,162.829636 30.149845,164.835587 30.390100,166.814850 
	C33.057701,188.791016 45.094982,203.924026 64.916634,212.903961 
	C81.711105,220.512482 99.554237,222.044952 117.746063,220.503098 
	C131.014145,219.378555 143.745392,216.296646 155.168106,209.187683 
	C173.098831,198.028473 180.937317,181.573441 180.101944,160.694397 
	C179.332047,141.451859 168.738388,128.658447 152.396896,120.493721 
	C144.609238,116.602760 135.847046,114.588974 127.427757,112.051811 
	C112.786942,107.639748 97.804726,104.207817 83.470795,98.979912 
	C72.572212,95.004951 70.360947,81.343544 78.666649,73.081337 
	C81.818092,69.946396 86.226021,67.419029 90.511032,66.213760 
	C99.819237,63.595589 109.361847,64.326462 118.599739,67.184982 
	C125.979813,69.468636 131.446823,74.078728 134.474152,82.255020 
M522.434753,47.038097 
	C518.448059,36.952389 521.085510,38.648659 510.345917,38.511021 
	C501.683502,38.400002 493.012238,38.683640 484.357574,38.402523 
	C480.428528,38.274899 478.495300,39.492237 477.069519,43.289848 
	C456.006836,99.390831 434.778412,155.429581 413.601318,211.487640 
	C412.984955,213.119293 412.500488,214.800781 411.780518,216.987610 
	C424.510437,216.987610 436.494141,217.100464 448.468933,216.825348 
	C449.766754,216.795517 451.625977,214.749573 452.184631,213.251038 
	C456.079468,202.802887 459.822601,192.293182 463.336639,181.710983 
	C464.450989,178.355270 466.024231,177.048080 469.700165,177.084213 
	C488.858704,177.272598 508.020721,177.253082 527.179810,177.096680 
	C530.578857,177.068939 532.166138,178.104218 533.213928,181.395767 
	C536.545654,191.861832 540.407227,202.160095 543.690002,212.640350 
	C544.798279,216.178665 546.520569,217.233612 550.055908,217.077240 
	C556.208557,216.805130 562.381836,217.001892 568.546509,217.001984 
	C574.103455,217.002060 579.660400,217.001999 585.977417,217.001999 
	C564.669434,159.963577 543.709534,103.856842 522.434753,47.038097 
M909.835876,42.892754 
	C910.431885,38.609520 907.654175,38.467785 904.564819,38.469357 
	C859.251648,38.492420 813.938477,38.519222 768.625488,38.421928 
	C764.854919,38.413834 763.252258,39.358696 763.403748,43.440594 
	C763.687805,51.093292 763.652466,58.769253 763.414734,66.425125 
	C763.294739,70.288277 764.503784,71.651108 768.491394,71.594261 
	C782.648804,71.392441 796.811035,71.501480 810.971252,71.543053 
	C812.875854,71.548637 814.779663,71.841896 817.254456,72.049904 
	C817.254456,120.644974 817.254456,168.679306 817.254456,216.649124 
	C830.471436,216.649124 843.055542,216.649124 856.175354,216.649124 
	C856.175354,214.175125 856.175293,212.044128 856.175293,209.913116 
	C856.175354,167.098846 856.132751,124.284500 856.204773,81.470345 
	C856.223450,70.372688 854.441956,71.601616 865.884460,71.535141 
	C878.045288,71.464485 890.206848,71.523514 902.368103,71.517296 
	C909.833191,71.513474 909.835815,71.506203 909.839111,64.306526 
	C909.842285,57.476234 909.839111,50.645939 909.835876,42.892754 
z"/>
<path fill="#00B500" opacity="1.000000" stroke="none" 
	d="
M240.173325,132.000092 
	C240.173325,160.449707 240.173325,188.399307 240.173325,216.674377 
	C227.823563,216.674377 216.069672,216.674377 203.855484,216.674377 
	C203.730667,214.854935 203.502319,213.074097 203.501724,211.293198 
	C203.482803,155.634644 203.534027,99.975967 203.396500,44.317760 
	C203.385300,39.788105 204.617172,38.300308 209.256546,38.385353 
	C224.082748,38.657135 238.918747,38.609173 253.747040,38.402245 
	C257.556671,38.349083 259.221680,39.587925 260.449188,43.238659 
	C273.129944,80.951828 286.013489,118.596825 298.847260,156.258514 
	C299.272034,157.505005 299.767761,158.727310 300.722656,161.273254 
	C301.751221,158.442398 302.435791,156.730392 303.000183,154.979660 
	C314.951965,117.902916 326.963074,80.844872 338.728271,43.708931 
	C340.024475,39.617558 341.876984,38.323044 346.061920,38.392670 
	C360.555786,38.633823 375.056122,38.477371 389.554016,38.496067 
	C391.357361,38.498394 393.160522,38.643814 395.392029,38.741718 
	C395.392029,98.099907 395.392029,157.133850 395.392029,216.586487 
	C383.491486,216.586487 371.612244,216.586487 359.252228,216.586487 
	C359.252228,175.305893 359.252228,134.057663 359.252228,92.809433 
	C358.843658,92.688782 358.435059,92.568130 358.026489,92.447479 
	C357.385193,94.101845 356.690521,95.737732 356.110535,97.413307 
	C342.877747,135.642899 329.596832,173.856125 316.528992,212.142059 
	C315.225769,215.960281 313.524323,217.326920 309.491547,217.103622 
	C302.846191,216.735672 296.155182,216.779312 289.504028,217.090469 
	C285.708313,217.268021 284.042267,216.008026 282.783112,212.358307 
	C269.643433,174.272995 256.296875,136.259064 242.996613,98.229218 
	C242.470963,96.726181 241.834457,95.261917 240.173325,93.915024 
	C240.173325,106.443375 240.173325,118.971733 240.173325,132.000092 
z"/>
<path fill="#00B500" opacity="1.000000" stroke="none" 
	d="
M601.482300,95.999634 
	C601.483704,78.174736 601.585083,60.848846 601.410583,43.525738 
	C601.370911,39.593849 602.635193,38.396309 606.540466,38.414162 
	C636.858398,38.552784 667.178772,38.340473 697.494385,38.639614 
	C703.898254,38.702805 710.572937,39.546013 716.632629,41.528358 
	C747.648132,51.674664 760.669495,90.064606 741.863037,116.850151 
	C737.270874,123.390617 729.899475,127.979752 723.717834,133.545334 
	C723.117493,132.888214 723.363037,133.402161 723.743469,133.537964 
	C736.951965,138.252335 743.503784,148.505325 745.794617,161.517181 
	C747.432800,170.822342 747.449341,180.400909 748.651123,189.798447 
	C749.799316,198.777115 751.544495,207.679459 753.088440,216.984146 
	C742.093262,216.984146 730.154907,217.098663 718.226440,216.808823 
	C717.020325,216.779526 715.070801,214.439850 714.830444,212.951996 
	C713.347473,203.771713 712.334839,194.516876 711.008240,185.309525 
	C710.036743,178.567047 709.335205,171.724121 707.601196,165.167191 
	C704.857910,154.793869 697.904663,148.346024 686.950989,147.874710 
	C672.654175,147.259521 658.324890,147.418610 644.010620,147.179153 
	C640.199219,147.115387 640.863525,149.816711 640.859924,152.032669 
	C640.828308,171.523117 640.839905,191.013626 640.838745,210.504120 
	C640.838623,212.461014 640.838745,214.417923 640.838745,216.678162 
	C627.625549,216.678162 615.039185,216.678162 601.482239,216.678162 
	C601.482239,176.608109 601.482239,136.553879 601.482300,95.999634 
M707.087830,78.576309 
	C701.899292,70.975113 693.973877,69.251488 685.623962,69.093163 
	C672.309448,68.840721 658.986877,69.002556 645.667725,69.020798 
	C644.225220,69.022774 642.782898,69.233116 641.312866,69.348976 
	C641.312866,86.077660 641.312866,102.428154 641.312866,118.873184 
	C657.915833,118.873184 674.064087,119.341805 690.166870,118.688950 
	C699.135376,118.325333 706.549622,114.039398 709.230042,104.483467 
	C711.640381,95.890320 711.592712,87.391129 707.087830,78.576309 
z"/>
<path fill="#00B600" opacity="1.000000" stroke="none" 
	d="
M134.328613,81.892548 
	C131.446823,74.078728 125.979813,69.468636 118.599739,67.184982 
	C109.361847,64.326462 99.819237,63.595589 90.511032,66.213760 
	C86.226021,67.419029 81.818092,69.946396 78.666649,73.081337 
	C70.360947,81.343544 72.572212,95.004951 83.470795,98.979912 
	C97.804726,104.207817 112.786942,107.639748 127.427757,112.051811 
	C135.847046,114.588974 144.609238,116.602760 152.396896,120.493721 
	C168.738388,128.658447 179.332047,141.451859 180.101944,160.694397 
	C180.937317,181.573441 173.098831,198.028473 155.168106,209.187683 
	C143.745392,216.296646 131.014145,219.378555 117.746063,220.503098 
	C99.554237,222.044952 81.711105,220.512482 64.916634,212.903961 
	C45.094982,203.924026 33.057701,188.791016 30.390100,166.814850 
	C30.149845,164.835587 30.100077,162.829636 30.041079,160.833725 
	C30.017735,160.043961 30.210859,159.247803 30.340630,158.159210 
	C42.825157,158.159210 55.065060,158.159210 67.215416,158.159210 
	C67.493210,158.594940 67.780174,158.846405 67.815971,159.129608 
	C70.214470,178.106430 79.928528,187.679352 99.105064,190.129333 
	C109.365265,191.440170 119.451050,190.962875 129.026306,186.852997 
	C136.295654,183.732880 141.480148,178.715393 142.132187,170.122574 
	C142.811356,161.172333 138.255005,155.327972 130.769806,151.945831 
	C123.686386,148.745255 116.191231,146.364044 108.728508,144.115921 
	C96.942719,140.565506 84.998131,137.544144 73.195160,134.047684 
	C69.392334,132.921158 65.749001,131.158432 62.159809,129.423767 
	C27.440907,112.644028 29.564775,69.376877 53.980694,49.993179 
	C66.183647,40.305305 80.232956,35.756737 95.492195,34.642578 
	C113.213699,33.348633 130.485016,35.364082 146.419434,43.839783 
	C161.820160,52.031628 171.131027,64.798119 173.615738,82.227715 
	C174.030746,85.138840 173.956680,88.119690 174.148148,91.835709 
	C165.985931,91.835709 158.376434,91.835709 150.766937,91.835709 
	C149.600616,91.835709 148.434296,91.835716 147.267975,91.835709 
	C137.071518,91.835640 137.071518,91.835640 134.328613,81.892548 
z"/>
<path fill="#00B600" opacity="1.000000" stroke="none" 
	d="
M522.592163,47.394104 
	C543.709534,103.856842 564.669434,159.963577 585.977417,217.001999 
	C579.660400,217.001999 574.103455,217.002060 568.546509,217.001984 
	C562.381836,217.001892 556.208557,216.805130 550.055908,217.077240 
	C546.520569,217.233612 544.798279,216.178665 543.690002,212.640350 
	C540.407227,202.160095 536.545654,191.861832 533.213928,181.395767 
	C532.166138,178.104218 530.578857,177.068939 527.179810,177.096680 
	C508.020721,177.253082 488.858704,177.272598 469.700165,177.084213 
	C466.024231,177.048080 464.450989,178.355270 463.336639,181.710983 
	C459.822601,192.293182 456.079468,202.802887 452.184631,213.251038 
	C451.625977,214.749573 449.766754,216.795517 448.468933,216.825348 
	C436.494141,217.100464 424.510437,216.987610 411.780518,216.987610 
	C412.500488,214.800781 412.984955,213.119293 413.601318,211.487640 
	C434.778412,155.429581 456.006836,99.390831 477.069519,43.289848 
	C478.495300,39.492237 480.428528,38.274899 484.357574,38.402523 
	C493.012238,38.683640 501.683502,38.400002 510.345917,38.511021 
	C521.085510,38.648659 518.448059,36.952389 522.592163,47.394104 
M483.612122,148.002289 
	C495.982452,148.002289 508.352783,148.002289 521.499817,148.002289 
	C513.889221,125.877235 506.598175,104.681160 499.307098,83.485085 
	C498.902527,83.534286 498.497955,83.583488 498.093414,83.632683 
	C490.578278,104.840302 483.063141,126.047913 475.283386,148.002258 
	C478.393585,148.002258 480.521332,148.002258 483.612122,148.002289 
z"/>
<path fill="#00B400" opacity="1.000000" stroke="none" 
	d="
M909.837280,43.354202 
	C909.839111,50.645939 909.842285,57.476234 909.839111,64.306526 
	C909.835815,71.506203 909.833191,71.513474 902.368103,71.517296 
	C890.206848,71.523514 878.045288,71.464485 865.884460,71.535141 
	C854.441956,71.601616 856.223450,70.372688 856.204773,81.470345 
	C856.132751,124.284500 856.175354,167.098846 856.175293,209.913116 
	C856.175293,212.044128 856.175354,214.175125 856.175354,216.649124 
	C843.055542,216.649124 830.471436,216.649124 817.254456,216.649124 
	C817.254456,168.679306 817.254456,120.644974 817.254456,72.049904 
	C814.779663,71.841896 812.875854,71.548637 810.971252,71.543053 
	C796.811035,71.501480 782.648804,71.392441 768.491394,71.594261 
	C764.503784,71.651108 763.294739,70.288277 763.414734,66.425125 
	C763.652466,58.769253 763.687805,51.093292 763.403748,43.440594 
	C763.252258,39.358696 764.854919,38.413834 768.625488,38.421928 
	C813.938477,38.519222 859.251648,38.492420 904.564819,38.469357 
	C907.654175,38.467785 910.431885,38.609520 909.837280,43.354202 
z"/>
<path fill="#000100" opacity="1.000000" stroke="none" 
	d="
M707.282654,78.894699 
	C711.592712,87.391129 711.640381,95.890320 709.230042,104.483467 
	C706.549622,114.039398 699.135376,118.325333 690.166870,118.688950 
	C674.064087,119.341805 657.915833,118.873184 641.312866,118.873184 
	C641.312866,102.428154 641.312866,86.077660 641.312866,69.348976 
	C642.782898,69.233116 644.225220,69.022774 645.667725,69.020798 
	C658.986877,69.002556 672.309448,68.840721 685.623962,69.093163 
	C693.973877,69.251488 701.899292,70.975113 707.282654,78.894699 
z"/>
<path fill="#000200" opacity="1.000000" stroke="none" 
	d="
M483.130615,148.002274 
	C480.521332,148.002258 478.393585,148.002258 475.283386,148.002258 
	C483.063141,126.047913 490.578278,104.840302 498.093414,83.632683 
	C498.497955,83.583488 498.902527,83.534286 499.307098,83.485085 
	C506.598175,104.681160 513.889221,125.877235 521.499817,148.002289 
	C508.352783,148.002289 495.982452,148.002289 483.130615,148.002274 
z"/>
</svg>